<svg width="50" height="56" viewBox="0 0 50 56" fill="none" xmlns="http://www.w3.org/2000/svg">
<circle cx="25" cy="28" r="25" fill="#116ACC"/>
<path d="M39.584 34.928C38.976 37.136 38 38.96 36.656 40.4C35.312 41.808 33.712 42.848 31.856 43.52C30 44.16 27.952 44.48 25.712 44.48C22.512 44.48 19.744 43.84 17.408 42.56C15.072 41.248 13.28 39.376 12.032 36.944C10.784 34.512 10.16 31.584 10.16 28.16C10.16 24.736 10.784 21.808 12.032 19.376C13.28 16.944 15.072 15.088 17.408 13.808C19.744 12.496 22.496 11.84 25.664 11.84C27.872 11.84 29.904 12.16 31.76 12.8C33.616 13.408 35.184 14.352 36.464 15.632C37.744 16.912 38.656 18.56 39.2 20.576L31.952 23.504C31.504 21.52 30.768 20.16 29.744 19.424C28.752 18.688 27.488 18.32 25.952 18.32C24.448 18.32 23.136 18.688 22.016 19.424C20.928 20.16 20.08 21.264 19.472 22.736C18.896 24.176 18.608 25.984 18.608 28.16C18.608 30.304 18.88 32.112 19.424 33.584C19.968 35.056 20.784 36.16 21.872 36.896C22.992 37.632 24.368 38 26 38C27.536 38 28.832 37.584 29.888 36.752C30.976 35.888 31.712 34.576 32.096 32.816L39.584 34.928Z" fill="white"/>
</svg>
